<svg width="26" height="26" viewBox="0 0 26 26" fill="none" xmlns="http://www.w3.org/2000/svg">
<path d="M13 0C15.5712 0 18.0846 0.762437 20.2224 2.19089C22.3602 3.61935 24.0265 5.64967 25.0104 8.02511C25.9944 10.4006 26.2518 13.0144 25.7502 15.5362C25.2486 18.0579 24.0105 20.3743 22.1924 22.1924C20.3743 24.0105 18.0579 25.2486 15.5362 25.7502C13.0144 26.2518 10.4006 25.9944 8.02511 25.0104C5.64967 24.0265 3.61935 22.3602 2.19089 20.2224C0.762437 18.0846 0 15.5712 0 13C0 9.55218 1.36964 6.24558 3.80761 3.80761C6.24558 1.36964 9.55218 0 13 0Z" fill="white"/>
<path d="M13 14C13.5523 14 14 13.5523 14 13C14 12.4477 13.5523 12 13 12C12.4477 12 12 12.4477 12 13C12 13.5523 12.4477 14 13 14Z" fill="#5F6368"/>
<path d="M20 14C20.5523 14 21 13.5523 21 13C21 12.4477 20.5523 12 20 12C19.4477 12 19 12.4477 19 13C19 13.5523 19.4477 14 20 14Z" fill="#5F6368"/>
<path d="M6 14C6.55228 14 7 13.5523 7 13C7 12.4477 6.55228 12 6 12C5.44772 12 5 12.4477 5 13C5 13.5523 5.44772 14 6 14Z" fill="#5F6368"/>
<path d="M13 14C13.5523 14 14 13.5523 14 13C14 12.4477 13.5523 12 13 12C12.4477 12 12 12.4477 12 13C12 13.5523 12.4477 14 13 14Z" stroke="#5F6368" stroke-width="0.5" stroke-linecap="round" stroke-linejoin="round"/>
<path d="M20 14C20.5523 14 21 13.5523 21 13C21 12.4477 20.5523 12 20 12C19.4477 12 19 12.4477 19 13C19 13.5523 19.4477 14 20 14Z" stroke="#5F6368" stroke-width="0.5" stroke-linecap="round" stroke-linejoin="round"/>
<path d="M6 14C6.55228 14 7 13.5523 7 13C7 12.4477 6.55228 12 6 12C5.44772 12 5 12.4477 5 13C5 13.5523 5.44772 14 6 14Z" stroke="#5F6368" stroke-width="0.5" stroke-linecap="round" stroke-linejoin="round"/>
</svg>
