<svg width="13" height="13" viewBox="0 0 13 13" fill="none" xmlns="http://www.w3.org/2000/svg">
<path d="M6.18531 1.12938H1.7634C1.42833 1.12938 1.10698 1.26248 0.870042 1.49942C0.633108 1.73635 0.5 2.0577 0.5 2.39278V11.2366C0.5 11.5717 0.633108 11.893 0.870042 12.13C1.10698 12.3669 1.42833 12.5 1.7634 12.5H10.6072C10.9423 12.5 11.2636 12.3669 11.5006 12.13C11.7375 11.893 11.8706 11.5717 11.8706 11.2366V6.81469M10.2124 0.892489C10.4637 0.641182 10.8046 0.5 11.16 0.5C11.5154 0.5 11.8562 0.641182 12.1075 0.892489C12.3588 1.1438 12.5 1.48464 12.5 1.84004C12.5 2.19544 12.3588 2.53629 12.1075 2.78759L6.41399 8.48175C6.26399 8.63162 6.07868 8.74132 5.87515 8.80076L4.06027 9.33139C4.00591 9.34724 3.94829 9.34819 3.89344 9.33414C3.83859 9.32009 3.78853 9.29155 3.74849 9.25151C3.70845 9.21147 3.67991 9.16141 3.66586 9.10656C3.65181 9.05171 3.65276 8.99409 3.66861 8.93973L4.19924 7.12485C4.25896 6.92148 4.36888 6.73639 4.51888 6.58664L10.2124 0.892489Z" stroke="#5F6368" stroke-linecap="round" stroke-linejoin="round"/>
</svg>
